<svg xmlns="http://www.w3.org/2000/svg" width="80" height="80" viewBox="0 0 80 80">
    <g fill="none" fill-rule="evenodd">
        <g stroke="#DFDFDF" stroke-width="2">
            <g>
                <path fill="#FFF" d="M40 1c10.77 0 20.52 4.365 27.577 11.423C74.635 19.481 79 29.231 79 40c0 10.77-4.365 20.52-11.423 27.577C60.52 74.635 50.77 79 40 79c-10.77 0-20.52-4.365-27.577-11.423C5.365 60.52 1 50.77 1 40c0-10.77 4.365-20.52 11.423-27.577C19.481 5.365 29.231 1 40 1z" transform="translate(-80 -3951) translate(80 3951)"/>
                <path d="M40.5 15c2.9 0 5.524 1.175 7.424 3.076C49.824 19.976 51 22.6 51 25.5c0 2.9-1.175 5.524-3.076 7.424C46.024 34.824 43.4 36 40.5 36c-2.9 0-5.524-1.175-7.424-3.076C31.176 31.024 30 28.4 30 25.5c0-2.9 1.175-5.524 3.076-7.424C34.976 16.176 37.6 15 40.5 15zM68 60c-4.145-9.332-15.115-16-28-16s-23.855 6.668-28 16" transform="translate(-80 -3951) translate(80 3951)"/>
            </g>
        </g>
    </g>
</svg>
