<svg width="30" height="30" viewBox="0 0 30 30" fill="none" xmlns="http://www.w3.org/2000/svg">
<path d="M14.3732 26.6111C8.7933 26.6111 4 23.2092 4 16.208C4 8.49189 9.62905 3.38892 16.3151 3.38892C22.2391 3.38892 26 7.4072 26 13.1511C26 18.2048 22.6816 20.7686 19.8548 20.7686C18.2816 20.7686 17.0034 20.029 16.733 18.6485H16.6838C15.8972 19.7579 14.4715 20.5221 13.3162 20.5221C11.1531 20.5221 9.72738 18.9444 9.72738 16.3805C9.72738 13.1018 12.0626 9.62588 15.2827 9.62588C16.2413 9.62588 16.9542 10.045 17.4212 11.0064H17.4704L17.8637 9.84775H20.1006L18.8961 15.8628C18.4782 17.6131 18.9207 18.5006 20.2235 18.5006C21.9196 18.5006 23.6648 16.4791 23.6648 13.2744C23.6648 9.10819 21.3788 5.63225 16.0201 5.63225C11.2022 5.63225 6.4581 9.72449 6.4581 16.1094C6.4581 21.6068 10.1944 24.3678 14.6682 24.3678C16.1676 24.3678 17.7899 23.8994 18.9698 23.2338L19.781 25.2553C18.1095 26.2167 16.3397 26.6111 14.3732 26.6111ZM14.0782 18.2294C14.7419 18.2294 15.3318 17.835 16.1184 16.8489L16.8313 12.9046C16.4626 12.2883 15.9955 11.9925 15.381 11.9925C13.6112 11.9925 12.4559 14.4084 12.4559 16.1833C12.4559 17.5638 13.1196 18.2294 14.0782 18.2294Z" fill="#222222"/>
</svg>
